<?xml version="1.0" encoding="UTF-8" standalone="no"?>
<!-- Created with Inkscape (http://www.inkscape.org/) -->

<svg
   width="210mm"
   height="297mm"
   viewBox="0 0 210 297"
   version="1.1"
   id="svg275"
   inkscape:version="1.2 (dc2aedaf03, 2022-05-15)"
   sodipodi:docname="dein.svg"
   xmlns:inkscape="http://www.inkscape.org/namespaces/inkscape"
   xmlns:sodipodi="http://sodipodi.sourceforge.net/DTD/sodipodi-0.dtd"
   xmlns="http://www.w3.org/2000/svg"
   xmlns:svg="http://www.w3.org/2000/svg">
  <sodipodi:namedview
     id="namedview277"
     pagecolor="#ffffff"
     bordercolor="#000000"
     borderopacity="0.25"
     inkscape:showpageshadow="2"
     inkscape:pageopacity="0.0"
     inkscape:pagecheckerboard="0"
     inkscape:deskcolor="#d1d1d1"
     inkscape:document-units="mm"
     showgrid="false"
     inkscape:zoom="0.77593294"
     inkscape:cx="396.94152"
     inkscape:cy="561.25984"
     inkscape:window-width="1720"
     inkscape:window-height="1080"
     inkscape:window-x="98"
     inkscape:window-y="-2"
     inkscape:window-maximized="1"
     inkscape:current-layer="layer1" />
  <defs
     id="defs272" />
  <g
     inkscape:label="Слой 1"
     inkscape:groupmode="layer"
     id="layer1">
    <path
       d="m 83.882329,37.343077 c -0.599722,1.869722 -1.658055,9.666111 -1.552222,11.394722 l 0.105833,2.081389 -3.563055,0.599722 c -1.940278,0.3175 -4.727222,0.917223 -6.173611,1.340556 -1.481667,0.423333 -2.751667,0.740833 -2.8575,0.740833 -0.141111,0 -0.493889,-0.846666 -0.846667,-1.869722 -0.3175,-0.987778 -1.834444,-3.704167 -3.386666,-5.961944 l -2.751667,-4.162778 -1.869722,0.740833 c -3.845278,1.481667 -7.3025,3.280834 -7.3025,3.739445 0,1.552222 2.257778,9.983611 2.998611,11.288888 l 0.881944,1.481667 -2.892777,1.799167 c -1.622778,0.9525 -4.021667,2.645833 -5.3975,3.704166 l -2.469445,1.940278 -1.340555,-1.411111 c -0.740833,-0.776111 -3.245556,-2.681111 -5.538611,-4.233333 l -4.233333,-2.822223 -3.527778,3.563056 c -2.010833,2.046111 -3.421944,3.739444 -3.280833,3.986389 1.481666,2.469444 6.0325,8.431388 7.161388,9.348611 l 1.411112,1.128888 -1.869723,2.54 c -1.058333,1.411111 -2.645833,3.880556 -3.563055,5.468056 -0.917222,1.5875 -1.763889,2.892778 -1.834444,2.892778 -0.105834,0 -0.917223,-0.388056 -1.834445,-0.811389 -0.917222,-0.458611 -3.4925,-1.199445 -5.715,-1.622778 -2.2225,-0.423333 -4.409722,-0.881944 -4.868333,-0.987778 -0.670278,-0.176389 -0.917222,0.105834 -1.799167,2.046111 -0.564444,1.234722 -1.411111,3.386667 -1.905,4.7625 l -0.881944,2.504722 4.303889,2.681111 c 2.363611,1.481667 5.115277,2.963334 6.103055,3.245556 l 1.799167,0.529166 -0.811389,3.457219 c -0.423333,1.86973 -0.917222,4.19806 -1.023056,5.18584 -0.141111,0.9525 -0.3175,2.32833 -0.423333,3.03389 l -0.176389,1.30527 -2.187222,-0.14111 c -1.516944,-0.10583 -3.598333,0.14111 -6.773333,0.81139 l -4.5861111,0.98778 v 5.11528 5.08 l 4.4097221,0.81139 c 2.504722,0.45861 5.468055,0.77611 6.879166,0.70555 l 2.434167,-0.0705 0.599722,3.56305 c 0.3175,1.94028 0.917223,4.72722 1.340556,6.17361 0.423333,1.48167 0.740833,2.75167 0.740833,2.8575 0,0.14111 -0.846666,0.49389 -1.834444,0.84667 -1.023056,0.3175 -3.739445,1.83444 -5.997222,3.38666 l -4.162778,2.75167 0.740833,1.86972 c 1.481667,3.84528 3.280834,7.3025 3.739445,7.3025 1.552222,0 9.983611,-2.25777 11.288888,-2.99861 l 1.481667,-0.88194 1.799167,2.89278 c 0.9525,1.62277 2.645833,4.02166 3.704166,5.3975 l 1.940278,2.46944 -1.411111,1.34056 c -0.776111,0.74083 -2.681111,3.24555 -4.233333,5.53861 l -2.822223,4.23333 3.563056,3.52778 c 2.046111,2.01083 3.739444,3.42194 3.986389,3.28083 2.469444,-1.48167 8.431388,-6.0325 9.348611,-7.16139 l 1.128888,-1.41111 2.54,1.86972 c 1.411111,1.05834 3.880556,2.64584 5.468056,3.56306 1.5875,0.91722 2.892778,1.76389 2.892778,1.83444 0,0.10584 -0.388056,0.91723 -0.811389,1.83445 -0.458611,0.91722 -1.199445,3.4925 -1.622778,5.715 -0.423333,2.2225 -0.881944,4.40972 -0.987778,4.86833 -0.176389,0.67028 0.105834,0.91722 2.046111,1.79917 1.234722,0.56444 3.386667,1.41111 4.7625,1.905 l 2.504722,0.88194 2.716389,-4.33916 c 1.516945,-2.39889 2.963333,-5.15056 3.245556,-6.10306 l 0.529166,-1.72861 3.421945,0.77611 c 1.869722,0.45861 4.233333,0.91722 5.185833,1.02306 0.987778,0.14111 2.363611,0.3175 3.069166,0.42333 l 1.305278,0.21167 -0.176389,2.15194 c -0.105833,1.5875 0.105834,3.45722 0.811389,6.77333 l 0.987778,4.58611 h 5.115278 5.079999 l 0.811389,-4.40972 c 0.458611,-2.50472 0.776111,-5.46805 0.705556,-6.87916 l -0.07056,-2.43417 3.56306,-0.59972 c 1.94028,-0.3175 4.72722,-0.91723 6.17361,-1.34056 1.48167,-0.42333 2.75167,-0.74083 2.8575,-0.74083 0.14111,0 0.49389,0.84666 0.84667,1.83444 0.3175,1.02306 1.83444,3.73945 3.38666,5.99722 l 2.75167,4.16278 1.86972,-0.74083 c 3.84528,-1.48167 7.3025,-3.28083 7.3025,-3.73945 0,-1.55222 -2.25778,-9.98361 -2.99861,-11.28888 l -0.88194,-1.48167 2.89277,-1.79917 c 1.62278,-0.9525 4.05695,-2.64583 5.3975,-3.70416 l 2.46945,-1.94028 1.34055,1.41111 c 0.74084,0.77611 3.24556,2.68111 5.53862,4.23333 l 4.23333,2.82222 3.52778,-3.56305 c 2.01083,-2.04611 3.42194,-3.73945 3.28083,-3.98639 -1.48167,-2.46944 -6.0325,-8.43139 -7.16139,-9.34861 l -1.41111,-1.12889 1.86972,-2.54 c 1.05834,-1.41111 2.64584,-3.88056 3.56306,-5.46806 0.91722,-1.5875 1.76389,-2.89277 1.83444,-2.89277 0.10584,0 0.91722,0.38805 1.83445,0.81139 0.91722,0.45861 3.4925,1.19944 5.715,1.62277 2.2225,0.42334 4.40972,0.88195 4.86833,0.98778 0.67028,0.17639 0.91722,-0.10583 1.79917,-2.04611 0.56444,-1.23472 1.41111,-3.38667 1.905,-4.7625 l 0.88194,-2.50472 -4.33917,-2.71639 c -2.39888,-1.51694 -5.15055,-2.96333 -6.10305,-3.24556 l -1.72861,-0.52916 0.77611,-3.42195 c 0.45861,-1.86972 0.91722,-4.23333 1.02305,-5.18583 0.14112,-0.98778 0.3175,-2.36361 0.42334,-3.06917 l 0.21166,-1.30527 2.15195,0.17638 c 1.5875,0.10584 3.45722,-0.10583 6.77333,-0.81138 l 4.58611,-0.98778 v -5.08 -5.11528 l -4.58611,-0.81139 c -2.61055,-0.49389 -5.57389,-0.77611 -6.87916,-0.74083 l -2.25778,0.10583 -0.59972,-3.56305 c -0.3175,-1.94028 -0.91723,-4.72723 -1.34056,-6.17362 -0.42333,-1.481662 -0.74083,-2.751662 -0.74083,-2.857495 0,-0.141111 0.84666,-0.493889 1.86972,-0.846667 0.98778,-0.3175 3.70417,-1.834444 5.96194,-3.386666 l 4.16278,-2.751667 -0.74083,-1.869722 c -1.48167,-3.845278 -3.28084,-7.3025 -3.73945,-7.3025 -1.55222,0 -9.98361,2.257778 -11.28889,2.998611 l -1.48166,0.881944 -1.79917,-2.892777 c -0.9525,-1.622778 -2.64583,-4.056945 -3.70417,-5.3975 l -1.94027,-2.469445 1.41111,-1.340555 c 0.77611,-0.740833 2.68111,-3.245556 4.23333,-5.538611 l 2.82222,-4.233333 -3.56305,-3.527778 c -2.04611,-2.010833 -3.73945,-3.421944 -3.98639,-3.280833 -2.46945,1.481666 -8.43139,6.0325 -9.34861,7.161388 l -1.12889,1.411112 -2.54,-1.869723 c -1.41111,-1.058333 -3.88056,-2.645833 -5.46806,-3.563055 -1.5875,-0.917222 -2.89277,-1.763889 -2.89277,-1.834444 0,-0.105834 0.38805,-0.917223 0.81138,-1.834445 0.45862,-0.917222 1.19945,-3.4925 1.62278,-5.715 0.42334,-2.2225 0.88195,-4.409722 0.98778,-4.868333 0.17639,-0.670278 -0.10583,-0.917222 -2.04611,-1.799167 -1.23472,-0.564444 -3.38667,-1.411111 -4.7625,-1.905 l -2.50472,-0.881944 -2.71639,4.339167 c -1.51695,2.398888 -2.96333,5.150555 -3.24556,6.103055 l -0.52916,1.728611 -3.42195,-0.776111 c -1.86972,-0.458611 -4.19805,-0.917222 -5.18583,-1.023056 -0.952505,-0.141111 -2.328339,-0.3175 -3.033894,-0.423333 l -1.305278,-0.176389 0.141111,-2.187222 C 95.982603,46.938683 95.735658,44.857294 95.06538,41.682294 L 94.077607,37.096133 89.032885,36.9903 c -3.845278,-0.07056 -5.044723,0 -5.150556,0.352777 z m 10.759722,28.857222 c 18.661949,1.869722 34.501669,12.982222 42.262779,29.66861 6.73805,14.499171 6.42055,31.009171 -0.81139,45.261391 -9.56028,18.80305 -29.59806,29.98611 -50.341389,28.08111 -2.398889,-0.21167 -5.3975,-0.635 -6.6675,-0.91722 C 59.858163,163.95502 45.006219,149.7028 39.961497,130.75863 37.950663,123.17391 37.774275,114.21335 39.43233,106.76974 45.182608,81.158076 68.995107,63.660299 94.642051,66.200299 Z"
       id="path72"
       style="fill:#000000;stroke:none;stroke-width:0.0352778" />
  </g>
</svg>
